<?xml version="1.0" standalone="no"?>
<!DOCTYPE svg PUBLIC "-//W3C//DTD SVG 20010904//EN"
 "http://www.w3.org/TR/2001/REC-SVG-20010904/DTD/svg10.dtd">
<svg version="1.0" xmlns="http://www.w3.org/2000/svg"
 width="775.000000pt" height="775.000000pt" viewBox="0 0 775.000000 775.000000"
 preserveAspectRatio="xMidYMid meet">
<metadata>
Created by potrace 1.11, written by Peter Selinger 2001-2013
</metadata>
<g transform="translate(0.000000,775.000000) scale(0.100000,-0.100000)"
fill="#000000" stroke="none">
<path d="M825 6781 c-114 -28 -210 -78 -293 -153 -41 -37 -112 -121 -112 -132
0 -5 -8 -20 -19 -34 -23 -34 -67 -144 -80 -202 -19 -87 -22 -106 -27 -205 l-6
-100 81 -315 c45 -173 97 -376 116 -450 34 -130 110 -426 230 -895 31 -121 70
-272 86 -335 29 -109 147 -568 154 -600 17 -69 57 -205 66 -223 22 -41 89 -95
140 -112 118 -39 242 13 300 127 35 68 30 135 -25 343 -27 99 -53 200 -58 225
-5 25 -12 52 -15 60 -3 8 -7 20 -8 25 -5 18 -186 725 -327 1270 -33 127 -61
237 -63 245 -1 9 -29 114 -60 235 -31 121 -58 227 -60 236 -2 8 -15 62 -30
118 -27 101 -29 142 -10 236 10 53 57 119 100 139 39 19 86 20 2515 19 1819
-1 2483 -5 2505 -13 57 -22 95 -76 114 -162 19 -84 14 -124 -47 -358 -33 -129
-89 -343 -122 -475 -34 -132 -80 -310 -102 -395 -22 -85 -41 -162 -43 -170 -2
-8 -13 -49 -24 -90 -10 -41 -42 -165 -71 -275 -28 -110 -53 -207 -55 -215 -4
-13 -212 -15 -1799 -13 l-1794 1 -51 -23 c-124 -58 -173 -177 -120 -290 40
-84 120 -128 242 -131 49 -1 93 -6 97 -10 7 -8 17 -52 46 -204 2 -14 13 -70
24 -125 11 -55 22 -109 24 -120 33 -170 69 -348 76 -380 6 -22 12 -56 16 -75
3 -19 32 -168 64 -330 33 -162 61 -306 64 -320 3 -14 15 -72 26 -130 12 -58
23 -116 26 -130 2 -14 7 -36 10 -50 3 -14 8 -36 10 -50 21 -117 56 -276 65
-291 9 -18 4 -19 -114 -19 -68 0 -148 5 -178 10 -30 6 -65 12 -79 15 -49 9
-190 86 -239 131 -90 82 -102 110 -186 439 -105 411 -112 433 -151 482 -104
127 -310 114 -398 -25 -47 -76 -49 -130 -10 -280 14 -53 27 -104 29 -112 5
-23 123 -481 133 -515 50 -169 255 -394 463 -508 77 -43 252 -103 324 -113 28
-3 73 -10 100 -14 70 -11 2184 -10 2270 2 72 9 232 45 250 56 6 4 15 7 22 8
23 4 159 73 221 114 69 44 227 198 279 271 40 57 100 175 107 214 3 17 19 84
37 150 17 66 32 128 35 138 2 10 6 27 9 37 3 10 8 27 10 37 2 10 11 45 20 78
15 54 142 549 150 585 4 14 26 102 96 370 17 63 32 124 35 135 14 66 133 517
137 522 3 2 167 6 364 8 226 2 373 7 398 14 22 7 51 14 65 17 45 10 161 62
232 105 83 50 207 170 263 254 66 100 123 233 142 335 10 57 11 911 0 965 -59
307 -273 564 -562 676 -42 17 -100 34 -128 39 -29 5 -68 12 -87 16 -19 3 -54
6 -76 5 l-42 0 -7 57 c-15 125 -79 278 -153 372 -69 87 -123 130 -227 180
-157 75 68 70 -2740 69 -2337 -1 -2525 -2 -2590 -18z m5825 -1114 c170 -38
309 -180 344 -348 8 -39 11 -181 10 -436 -1 -361 -2 -381 -23 -438 -54 -150
-177 -261 -326 -295 -29 -7 -143 -11 -275 -11 -314 0 -302 0 -295 11 4 6 22
70 41 143 30 115 111 433 118 462 2 6 6 24 11 40 20 75 117 452 120 465 2 8
13 53 25 100 12 47 23 92 25 100 2 8 15 58 29 110 14 52 26 99 26 103 0 7 133
3 170 -6z"/>
</g>
</svg>
