<svg width="1440" height="283" viewBox="0 0 1440 283" fill="none" xmlns="http://www.w3.org/2000/svg">
<path d="M0.5 282.5V-1L7.5 7H1249.5H1320C1320 7 1288.13 68.664 1242.5 71.5C1216.73 73.1017 1196.3 70.4627 1170.5 71.5C1139.33 72.7533 1152.95 107.138 1125 121C1084.27 141.204 1069.45 172.271 1031 148C911.781 72.736 873.825 38.2731 777.5 140C702.568 155.568 639.274 124.312 566.5 148C514.096 165.058 479.284 202.157 426.5 218C341.098 243.633 299.603 178.653 210.5 182C105.955 185.927 0.5 282.5 0.5 282.5Z" fill="#D6A356"/>
<path d="M215.5 241H38C38 241 -1.00139 149 -1.00098 121.5C-1.00057 94 -1.00003 -5 -1.00003 -5L1272 -8L1448.5 0.5L998.5 110L890 40.5L821.5 162L635.5 115.5L460.5 162L215.5 241Z" fill="#414042"/>
<path d="M8 261L-31 15L1242 12V32L968.5 130L860 60.5L791.5 182L605.5 135.5L430.5 182L185.5 261H8Z" fill="#414042" fill-opacity="0.35"/>
<path d="M359 200L320 -46L1593 -49V-29L1319.5 69L1211 -0.5L1142.5 121L956.5 74.5L781.5 121L536.5 200H359Z" fill="#414042" fill-opacity="0.35"/>
</svg>
